<?xml version="1.0" encoding="utf-8"?>
<!-- Generator: Adobe Illustrator 16.0.0, SVG Export Plug-In . SVG Version: 6.00 Build 0)  -->
<!DOCTYPE svg PUBLIC "-//W3C//DTD SVG 1.1//EN" "http://www.w3.org/Graphics/SVG/1.1/DTD/svg11.dtd">
<svg version="1.1" id="Camada_1" xmlns="http://www.w3.org/2000/svg" xmlns:xlink="http://www.w3.org/1999/xlink" x="0px" y="0px"
	 width="250px" height="70px" viewBox="0 0 250 70" enable-background="new 0 0 250 70" xml:space="preserve">
<g>
	<g>
		<g>
			<path fill="#FFFFFF" d="M72.907,30.03l5.177-11.032h1.143l5.138,11.043H82.68l-1.079-2.368h-4.735l0.702-1.51h3.334l-2.263-4.699
				l-4.003,8.565H72.907z"/>
			<path fill="#FFFFFF" d="M88.53,18.965h6.809c1.416,0.1,2.173,0.895,2.27,2.369l-0.004,1.176c0,0.805-0.273,1.329-0.827,1.587
				c0.554,0.176,0.827,0.656,0.827,1.433l0.004,2.137c-0.097,1.482-0.854,2.271-2.27,2.375H88.53V18.965z M94.823,23.295
				c0.851,0.025,1.274-0.364,1.269-1.162V21.74c0-0.8-0.379-1.198-1.135-1.198h-4.916v7.912h4.916
				c0.755-0.005,1.135-0.395,1.135-1.166v-1.369c0-0.723-0.451-1.081-1.346-1.081h-3.855v-1.543H94.823z"/>
			<path fill="#FFFFFF" d="M101.954,30.03l5.175-11.032h1.146l5.132,11.043h-1.679l-1.079-2.368h-4.736l0.701-1.51h3.334
				l-2.264-4.699l-4.001,8.565H101.954z"/>
			<path fill="#FFFFFF" d="M119.09,28.454h6.808v1.587h-8.304V18.966h1.496V28.454z"/>
			<path fill="#FFFFFF" d="M132.179,30.041h-1.496V18.966h1.496V30.041z"/>
			<path fill="#FFFFFF" d="M137.561,30.041v-1.587l7.012-7.912l-7.012-0.007v-1.57h9.08v1.577l-6.927,7.912h6.927v1.587H137.561z"/>
			<path fill="#FFFFFF" d="M150.973,30.03l5.175-11.032h1.152l5.129,11.043h-1.688l-1.069-2.368h-4.739l0.693-1.51h3.336
				l-2.254-4.699l-4.013,8.565H150.973z"/>
			<path fill="#FFFFFF" d="M168.863,28.454h4.193c0.706,0.047,1.075-0.362,1.101-1.222v-5.543c-0.013-0.765-0.355-1.153-1.061-1.146
				h-4.983v9.499h-1.504V18.966h6.796c1.483,0.034,2.242,0.813,2.271,2.322l-0.025,6.385c-0.018,1.533-0.779,2.325-2.245,2.368
				h-4.542V28.454z"/>
			<path fill="#FFFFFF" d="M183.011,18.965h4.532c1.519,0,2.286,0.782,2.286,2.352v6.341c-0.013,1.581-0.775,2.383-2.286,2.383
				h-4.532c-1.513,0-2.271-0.794-2.271-2.375v-6.333C180.741,19.75,181.499,18.965,183.011,18.965z M182.252,21.678v5.727
				c0,0.698,0.331,1.049,0.998,1.049h4.06c0.658,0,0.996-0.345,0.996-1.038v-5.805c0-0.716-0.347-1.069-1.022-1.069h-4.012
				C182.587,20.542,182.252,20.924,182.252,21.678z"/>
		</g>
		<g>
			<linearGradient id="SVGID_1_" gradientUnits="userSpaceOnUse" x1="68.8208" y1="38.5234" x2="194.8013" y2="38.5234">
				<stop  offset="0" style="stop-color:#EF7B5A"/>
				<stop  offset="0.5" style="stop-color:#E30613"/>
				<stop  offset="1" style="stop-color:#CB181A"/>
			</linearGradient>
			<polygon fill="url(#SVGID_1_)" points="176.578,37.234 68.821,37.188 71.365,39.858 191.16,39.852 191.181,39.852 
				191.181,39.852 194.801,37.188 176.592,37.223 			"/>
			<linearGradient id="SVGID_2_" gradientUnits="userSpaceOnUse" x1="65.6099" y1="35.5854" x2="219.731" y2="35.5854">
				<stop  offset="0" style="stop-color:#EDEEF4"/>
				<stop  offset="0.2472" style="stop-color:#94AFC7"/>
				<stop  offset="0.4326" style="stop-color:#BFCCDE"/>
				<stop  offset="0.6292" style="stop-color:#E1E9EE"/>
				<stop  offset="0.8371" style="stop-color:#A3ABBE"/>
				<stop  offset="1" style="stop-color:#5C7D99"/>
			</linearGradient>
			<polygon fill="url(#SVGID_2_)" points="216.048,36.786 219.731,34.385 65.61,34.472 67.737,36.786 			"/>
		</g>
		<g>
			<path fill="#FFFFFF" d="M72.51,42.533c0.337-0.045,0.744-0.071,1.185-0.071c0.804,0,1.374,0.159,1.754,0.468
				c0.387,0.323,0.61,0.773,0.61,1.388c0,0.637-0.219,1.151-0.624,1.494c-0.403,0.372-1.07,0.565-1.911,0.565
				c-0.4,0-0.733-0.021-1.015-0.049V42.533z M73.068,45.938c0.138,0.027,0.346,0.036,0.561,0.036c1.196,0,1.847-0.597,1.847-1.634
				c0.005-0.908-0.573-1.48-1.753-1.48c-0.292,0-0.508,0.009-0.655,0.047V45.938z"/>
			<path fill="#FFFFFF" d="M79.415,44.533h-1.683v1.394h1.875v0.405h-2.435v-3.853h2.338v0.428h-1.779v1.209h1.683V44.533z"/>
			<path fill="#FFFFFF" d="M80.642,45.738c0.249,0.132,0.615,0.251,1,0.251c0.574,0,0.908-0.271,0.908-0.658
				c0-0.37-0.232-0.573-0.814-0.77c-0.71-0.221-1.144-0.546-1.144-1.098c0-0.603,0.559-1.044,1.399-1.044
				c0.441,0,0.764,0.098,0.958,0.185l-0.157,0.41c-0.139-0.068-0.43-0.178-0.822-0.178c-0.59,0-0.816,0.31-0.816,0.573
				c0,0.366,0.264,0.541,0.863,0.75c0.733,0.249,1.103,0.56,1.103,1.121c0,0.593-0.495,1.112-1.513,1.112
				c-0.421,0-0.876-0.108-1.107-0.248L80.642,45.738z"/>
			<path fill="#FFFFFF" d="M86.514,44.533h-1.683v1.394h1.875v0.405h-2.434v-3.853h2.338v0.428h-1.779v1.209h1.683V44.533z"/>
			<path fill="#FFFFFF" d="M87.819,46.332v-3.853h0.609l1.388,1.951c0.32,0.458,0.569,0.855,0.777,1.249l0.011-0.003
				c-0.051-0.515-0.065-0.984-0.065-1.573v-1.624h0.525v3.853h-0.561l-1.375-1.952c-0.301-0.42-0.592-0.865-0.813-1.28L88.3,43.108
				c0.032,0.475,0.045,0.938,0.045,1.584v1.64H87.819z"/>
			<path fill="#FFFFFF" d="M93.382,46.332l-1.413-3.853h0.599l0.678,1.9c0.186,0.517,0.345,0.992,0.462,1.44h0.011
				c0.122-0.442,0.304-0.932,0.496-1.433l0.731-1.908h0.596l-1.545,3.853H93.382z"/>
			<path fill="#FFFFFF" d="M100.099,44.367c0,1.33-0.903,2.029-2.008,2.029c-1.143,0-1.947-0.788-1.947-1.956
				c0-1.217,0.855-2.021,2.011-2.021C99.336,42.42,100.099,43.232,100.099,44.367z M96.743,44.431c0,0.829,0.5,1.57,1.379,1.57
				c0.887,0,1.384-0.724,1.384-1.606c0-0.76-0.446-1.566-1.379-1.566C97.205,42.828,96.743,43.583,96.743,44.431z"/>
			<path fill="#FFFFFF" d="M101.212,42.479h0.56v3.447h1.851v0.405h-2.41V42.479z"/>
			<path fill="#FFFFFF" d="M105.201,46.332l-1.414-3.853h0.607l0.671,1.9c0.19,0.517,0.352,0.992,0.463,1.44h0.017
				c0.12-0.442,0.301-0.932,0.494-1.433l0.727-1.908h0.6l-1.55,3.853H105.201z"/>
			<path fill="#FFFFFF" d="M108.783,42.479v3.853h-0.559v-3.853H108.783z"/>
			<path fill="#FFFFFF" d="M113.793,44.643c-0.033-0.539-0.071-1.186-0.065-1.651h-0.023c-0.143,0.448-0.327,0.917-0.542,1.449
				l-0.768,1.883h-0.423l-0.697-1.838c-0.206-0.547-0.382-1.039-0.501-1.494h-0.017c-0.007,0.466-0.04,1.112-0.079,1.701l-0.12,1.64
				h-0.528l0.298-3.853h0.716l0.735,1.874c0.182,0.47,0.327,0.894,0.441,1.296h0.014c0.113-0.39,0.264-0.821,0.456-1.296
				l0.775-1.874h0.712l0.27,3.853h-0.551L113.793,44.643z"/>
			<path fill="#FFFFFF" d="M117.936,44.533h-1.686v1.394h1.877v0.405h-2.434v-3.853h2.338v0.428h-1.781v1.209h1.686V44.533z"/>
			<path fill="#FFFFFF" d="M119.241,46.332v-3.853h0.607l1.391,1.951c0.318,0.458,0.572,0.855,0.774,1.249l0.017-0.003
				c-0.055-0.515-0.064-0.984-0.064-1.573v-1.624h0.528v3.853h-0.568l-1.375-1.952c-0.303-0.42-0.591-0.865-0.806-1.28l-0.025,0.009
				c0.032,0.475,0.049,0.938,0.049,1.584v1.64H119.241z"/>
			<path fill="#FFFFFF" d="M124.676,42.914h-1.32v-0.435h3.214v0.435h-1.327v3.418h-0.567V42.914z"/>
			<path fill="#FFFFFF" d="M130.954,44.367c0,1.33-0.907,2.029-2.01,2.029c-1.13,0-1.941-0.788-1.941-1.956
				c0-1.217,0.858-2.021,2.005-2.021C130.192,42.42,130.954,43.232,130.954,44.367z M127.604,44.431c0,0.829,0.494,1.57,1.381,1.57
				c0.878,0,1.379-0.724,1.379-1.606c0-0.76-0.453-1.566-1.373-1.566C128.068,42.828,127.604,43.583,127.604,44.431z"/>
			<path fill="#FFFFFF" d="M136.057,44.533h-1.684v1.394h1.879v0.405h-2.429v-3.853h2.331v0.428h-1.781v1.209h1.684V44.533z"/>
			<path fill="#FFFFFF" d="M141.355,44.533h-1.688v1.394h1.884v0.405h-2.435v-3.853h2.331v0.428h-1.78v1.209h1.688V44.533z"/>
			<path fill="#FFFFFF" d="M145.024,46.332l-0.546-0.852c-0.232-0.327-0.372-0.526-0.506-0.752h-0.003
				c-0.128,0.226-0.256,0.422-0.473,0.759l-0.52,0.845h-0.641l1.311-1.944l-1.26-1.908h0.646l0.564,0.904
				c0.171,0.262,0.29,0.458,0.402,0.654h0.025c0.117-0.224,0.22-0.395,0.389-0.654l0.593-0.904h0.64l-1.319,1.886l1.347,1.967
				H145.024z"/>
			<path fill="#FFFFFF" d="M148.948,44.533h-1.68v1.394h1.875v0.405h-2.424v-3.853h2.332v0.428h-1.783v1.209h1.68V44.533z"/>
			<path fill="#FFFFFF" d="M153.28,46.208c-0.206,0.101-0.606,0.186-1.131,0.186c-1.235,0-2.152-0.682-2.152-1.953
				c0-1.195,0.917-2.021,2.271-2.021c0.536,0,0.87,0.113,1.021,0.179l-0.135,0.396c-0.214-0.08-0.514-0.151-0.873-0.151
				c-1.014,0-1.693,0.573-1.693,1.588c0,0.941,0.615,1.553,1.672,1.553c0.342,0,0.681-0.064,0.91-0.172L153.28,46.208z"/>
			<path fill="#FFFFFF" d="M154.928,42.479v2.281c0,0.865,0.428,1.24,1.016,1.24c0.64,0,1.047-0.39,1.047-1.24v-2.281h0.567v2.255
				c0,1.185-0.697,1.662-1.64,1.662c-0.89,0-1.548-0.451-1.548-1.639v-2.278H154.928z"/>
			<path fill="#FFFFFF" d="M161.939,46.208c-0.2,0.101-0.592,0.186-1.137,0.186l-0.147,0.231c0.237,0.033,0.455,0.194,0.455,0.424
				c0,0.329-0.329,0.461-0.665,0.461c-0.174,0-0.353-0.032-0.456-0.085l0.082-0.258c0.103,0.039,0.23,0.076,0.356,0.076
				c0.154,0,0.28-0.063,0.28-0.19c0-0.136-0.198-0.201-0.506-0.233l0.266-0.434c-1.051-0.122-1.813-0.777-1.813-1.945
				c0-1.195,0.918-2.021,2.262-2.021c0.532,0,0.878,0.113,1.031,0.179l-0.137,0.396c-0.218-0.08-0.512-0.151-0.881-0.151
				c-1.006,0-1.686,0.573-1.686,1.588c0,0.941,0.616,1.553,1.671,1.553c0.331,0,0.678-0.064,0.913-0.172L161.939,46.208z"/>
			<path fill="#FFFFFF" d="M163.788,45.129l-0.451,1.203h-0.585l1.475-3.853h0.681l1.469,3.853h-0.601l-0.464-1.203H163.788z
				 M163.788,42.255c-0.009-0.356,0.149-0.581,0.431-0.581c0.15,0,0.245,0.047,0.383,0.108c0.109,0.048,0.209,0.097,0.31,0.097
				c0.098,0,0.153-0.034,0.18-0.212h0.286c0.007,0.35-0.133,0.544-0.421,0.544c-0.146,0-0.257-0.039-0.394-0.104
				c-0.12-0.053-0.219-0.101-0.31-0.101c-0.099,0-0.145,0.086-0.17,0.248H163.788z M165.2,44.743l-0.423-1.108
				c-0.096-0.251-0.16-0.488-0.224-0.709h-0.017c-0.064,0.229-0.138,0.458-0.217,0.7l-0.421,1.117H165.2z"/>
			<path fill="#FFFFFF" d="M171.001,44.367c0,1.33-0.909,2.029-2.013,2.029c-1.138,0-1.939-0.788-1.939-1.956
				c0-1.217,0.855-2.021,2.004-2.021C170.236,42.42,171.001,43.232,171.001,44.367z M167.65,44.431c0,0.829,0.492,1.57,1.379,1.57
				c0.88,0,1.38-0.724,1.38-1.606c0-0.76-0.452-1.566-1.379-1.566C168.112,42.828,167.65,43.583,167.65,44.431z"/>
			<path fill="#FFFFFF" d="M173.869,42.533c0.331-0.045,0.733-0.071,1.18-0.071c0.8,0,1.374,0.159,1.76,0.468
				c0.385,0.323,0.604,0.773,0.604,1.388c0,0.637-0.21,1.151-0.621,1.494c-0.406,0.372-1.076,0.565-1.915,0.565
				c-0.402,0-0.733-0.021-1.007-0.049V42.533z M174.417,45.938c0.146,0.027,0.354,0.036,0.565,0.036
				c1.192,0,1.844-0.597,1.844-1.634c0.003-0.908-0.57-1.48-1.753-1.48c-0.288,0-0.503,0.009-0.656,0.047V45.938z"/>
			<path fill="#FFFFFF" d="M180.765,44.533h-1.678v1.394h1.87v0.405h-2.431v-3.853h2.343v0.428h-1.782v1.209h1.678V44.533z"/>
			<path fill="#FFFFFF" d="M183.819,42.533c0.271-0.045,0.625-0.071,1.071-0.071c0.559,0,0.957,0.112,1.215,0.321
				c0.242,0.178,0.387,0.462,0.387,0.797c0,0.35-0.124,0.628-0.338,0.829c-0.299,0.283-0.773,0.414-1.325,0.414
				c-0.164,0-0.321,0-0.449-0.025v1.534h-0.561V42.533z M184.379,44.388c0.12,0.036,0.282,0.043,0.466,0.043
				c0.67,0,1.078-0.292,1.078-0.825c0-0.506-0.403-0.745-1.016-0.745c-0.243,0-0.435,0.001-0.528,0.03V44.388z"/>
			<path fill="#FFFFFF" d="M187.623,42.533c0.281-0.054,0.692-0.071,1.073-0.071c0.601,0,0.983,0.089,1.257,0.313
				c0.212,0.163,0.338,0.429,0.338,0.735c0,0.506-0.363,0.844-0.818,0.984v0.004c0.336,0.112,0.536,0.39,0.637,0.783
				c0.138,0.53,0.246,0.916,0.329,1.051h-0.575c-0.071-0.101-0.162-0.435-0.291-0.918c-0.126-0.525-0.354-0.722-0.859-0.74h-0.526
				v1.658h-0.563V42.533z M188.186,44.3h0.565c0.601,0,0.976-0.301,0.976-0.736c0-0.507-0.403-0.712-0.994-0.721
				c-0.27,0-0.463,0.018-0.547,0.039V44.3z"/>
			<path fill="#FFFFFF" d="M195.189,44.367c0,1.33-0.908,2.029-2.019,2.029c-1.139,0-1.947-0.788-1.947-1.956
				c0-1.217,0.856-2.021,2.012-2.021C194.417,42.42,195.189,43.232,195.189,44.367z M191.823,44.431c0,0.829,0.501,1.57,1.381,1.57
				c0.885,0,1.393-0.724,1.393-1.606c0-0.76-0.447-1.566-1.384-1.566C192.287,42.828,191.823,43.583,191.823,44.431z"/>
			<path fill="#FFFFFF" d="M197.179,42.479h0.567v2.589c0,1.016-0.569,1.328-1.309,1.328c-0.209,0-0.458-0.034-0.599-0.08
				l0.078-0.41c0.12,0.032,0.279,0.077,0.468,0.077c0.509,0,0.794-0.202,0.794-0.964V42.479z"/>
			<path fill="#FFFFFF" d="M201.3,44.533h-1.683v1.394h1.875v0.405h-2.435v-3.853h2.342v0.428h-1.782v1.209h1.683V44.533z"/>
			<path fill="#FFFFFF" d="M203.526,42.914h-1.311v-0.435h3.204v0.435h-1.324v3.418h-0.569V42.914z"/>
			<path fill="#FFFFFF" d="M209.809,44.367c0,1.33-0.902,2.029-2.006,2.029c-1.144,0-1.943-0.788-1.943-1.956
				c0-1.217,0.853-2.021,2.008-2.021C209.052,42.42,209.809,43.232,209.809,44.367z M206.453,44.431c0,0.829,0.506,1.57,1.379,1.57
				c0.891,0,1.388-0.724,1.388-1.606c0-0.76-0.449-1.566-1.379-1.566C206.915,42.828,206.453,43.583,206.453,44.431z"/>
			<path fill="#FFFFFF" d="M210.847,45.738c0.25,0.132,0.617,0.251,1.003,0.251c0.571,0,0.903-0.271,0.903-0.658
				c0-0.37-0.224-0.573-0.81-0.77c-0.713-0.221-1.15-0.546-1.15-1.098c0-0.603,0.563-1.044,1.407-1.044
				c0.44,0,0.76,0.098,0.949,0.185l-0.151,0.41c-0.138-0.068-0.43-0.178-0.821-0.178c-0.593,0-0.817,0.31-0.817,0.573
				c0,0.366,0.263,0.541,0.86,0.75c0.731,0.249,1.104,0.56,1.104,1.121c0,0.593-0.493,1.112-1.511,1.112
				c-0.422,0-0.875-0.108-1.11-0.248L210.847,45.738z"/>
		</g>
	</g>
	<g>
		<path fill-rule="evenodd" clip-rule="evenodd" fill="#E30613" d="M68.821,37.188c0.725,0.783,1.818,1.887,2.544,2.67
			c-1.338,1.032-3.398,2.027-4.889,2.797c-1.484,0.747-3.011,1.437-4.557,2.168c0.531,1.364,1.089,2.798,1.656,4.252
			c0.223-0.074,0.419-0.135,0.665-0.214c0.186,0.473,0.369,0.934,0.563,1.421c-0.234,0.09-0.434,0.167-0.649,0.235
			c0.051,0.144,0.093,0.266,0.148,0.419c0.221-0.068,0.427-0.128,0.672-0.205c0.371,0.953,0.736,1.881,1.114,2.858
			c-0.218,0.071-0.416,0.148-0.658,0.247c0.062,0.149,0.119,0.3,0.183,0.473c0.229-0.071,0.434-0.132,0.704-0.221
			c1.775,4.932,3.542,9.845,5.316,14.796c-0.083,0.03-0.164,0.078-0.264,0.115c-1.184-2.622-2.358-5.216-3.543-7.836
			c-0.314,0.09-0.604,0.192-0.919,0.287c-1.535-1.975-3.07-3.97-4.628-5.98c0.216-0.086,0.417-0.167,0.641-0.245
			c-0.053-0.15-0.098-0.299-0.156-0.465c-0.233,0.064-0.451,0.123-0.688,0.188c-0.374-0.966-0.742-1.896-1.112-2.858
			c0.227-0.071,0.43-0.152,0.661-0.247c-0.058-0.145-0.11-0.271-0.166-0.408c-0.221,0.066-0.419,0.13-0.663,0.208
			c-0.185-0.47-0.365-0.928-0.56-1.412c0.22-0.09,0.427-0.17,0.658-0.252c-0.566-1.461-1.129-2.908-1.705-4.379
			c-6.205,1.637-12.41,1.619-18.633-0.066c-0.526,1.344-1.052,2.692-1.583,4.06c0.237,0.076,0.437,0.155,0.66,0.244
			c-0.188,0.481-0.37,0.94-0.553,1.42c-0.229-0.079-0.423-0.143-0.657-0.216c-0.057,0.132-0.114,0.262-0.176,0.407
			c0.225,0.095,0.424,0.179,0.657,0.259c-0.37,0.966-0.736,1.89-1.112,2.863c-0.231-0.07-0.435-0.137-0.665-0.21
			c-0.063,0.149-0.122,0.293-0.191,0.473c0.212,0.069,0.411,0.144,0.648,0.242c-0.177,0.348-0.349,0.688-0.523,1.033
			c-1.146,2.192-2.295,4.389-3.442,6.579c-0.204,0.391-0.413,0.782-0.609,1.175c-0.106,0.211-0.226,0.392-0.54,0.195
			c-0.808,1.657-1.604,3.292-2.405,4.932c-0.291,0.041-0.276-0.1-0.223-0.288c0.472-1.57,0.938-3.148,1.401-4.723
			c0.029-0.098,0.05-0.183,0.075-0.282c-0.116-0.054-0.221-0.098-0.35-0.161c0.869-3.268,1.74-6.528,2.62-9.815
			c0.225,0.066,0.428,0.132,0.655,0.197c0.065-0.15,0.124-0.294,0.198-0.461c-0.222-0.092-0.425-0.176-0.656-0.259
			c0.371-0.961,0.738-1.897,1.111-2.853c0.236,0.074,0.447,0.129,0.67,0.198c0.054-0.141,0.103-0.261,0.159-0.414
			c-0.208-0.072-0.412-0.138-0.657-0.234c0.184-0.47,0.362-0.93,0.555-1.414c0.225,0.066,0.43,0.129,0.666,0.199
			c0.103-0.258,0.206-0.489,0.296-0.721c0.409-1.053,0.806-2.108,1.227-3.157c0.085-0.207,0.062-0.333-0.107-0.486
			c-0.485-0.416-0.848-0.932-1.04-1.521c-0.683-2.094,0.601-4.164,2.78-4.661c0.122-0.038,0.266-0.147,0.313-0.248
			c0.357-0.872,0.698-1.756,1.052-2.662c-0.142-0.05-0.276-0.098-0.441-0.161c-0.185,0.472-0.365,0.918-0.558,1.387
			c-0.301-0.096-0.576-0.192-0.88-0.289c0.484-1.251,0.965-2.476,1.456-3.743c0.299,0.099,0.574,0.189,0.885,0.291
			c-0.183,0.47-0.355,0.922-0.542,1.396c0.143,0.056,0.269,0.11,0.445,0.18c1.491-3.846,2.982-7.667,4.478-11.509
			c-0.911-0.637-1.62-1.422-2.147-2.353c-2.212-3.943,0.502-8.946,5.205-9.572c0.211-0.031,0.297-0.093,0.278-0.292
			c-0.02-0.163-0.005-0.327-0.005-0.523c-0.383,0-0.736,0-1.101,0c0-2.911,0-5.789,0-8.688c1.383,0,2.763,0,4.175,0
			c0,2.887,0,5.771,0,8.683c-0.344,0-0.683,0-1.049,0c0,0.275,0,0.528,0,0.758c0.566,0.182,1.146,0.319,1.684,0.548
			c2.298,0.964,3.703,2.63,4.135,4.948c0.392,2.1-0.215,3.987-1.74,5.585c-0.25,0.263-0.542,0.494-0.844,0.695
			c-0.196,0.135-0.2,0.259-0.123,0.447c0.712,1.789,1.424,3.577,2.126,5.376c0.778,1.994,1.549,3.99,2.327,5.97
			c0.034,0.094,0.073,0.185,0.125,0.298c0.142-0.038,0.272-0.092,0.438-0.141c-0.18-0.482-0.349-0.927-0.532-1.411
			c0.298-0.102,0.571-0.199,0.874-0.302c0.487,1.25,0.967,2.476,1.459,3.75c-0.301,0.096-0.577,0.197-0.88,0.296
			c-0.185-0.462-0.361-0.907-0.548-1.378c-0.145,0.043-0.277,0.073-0.453,0.131c0.272,0.695,0.536,1.373,0.805,2.072
			c2.085-0.83,3.975-1.903,5.748-3.2c0.722,0.779,1.424,1.528,2.15,2.314c-2.241,1.694-4.701,3.021-7.397,4.042
			c0.13,0.329,0.253,0.64,0.393,0.989C63.586,40.792,66.461,38.966,68.821,37.188z M48.978,11.791
			c-2.392,0.176-5.045,2.234-5.231,5.228c-0.202,3.223,2.383,5.924,5.76,6.085c3.399,0.167,6.262-2.255,6.423-5.467
			c0.163-3.208-2.498-5.496-4.952-5.807c0,0.477,0,0.95,0,1.435c-0.676,0-1.325,0-2,0C48.978,12.755,48.978,12.272,48.978,11.791z
			 M55.859,38.921c-0.37-0.964-0.723-1.882-1.081-2.798c-0.863-2.225-1.726-4.433-2.587-6.649c-0.673-1.73-1.345-3.458-2.017-5.188
			c-0.055-0.141-0.101-0.252-0.316-0.252c-0.208,0-0.26,0.1-0.312,0.248c-0.113,0.306-0.231,0.604-0.351,0.9
			c-1.454,3.745-2.911,7.489-4.362,11.226c-0.316,0.812-0.628,1.612-0.958,2.462C47.883,39.785,51.852,39.785,55.859,38.921z
			 M57.659,41.667c-0.563,0.132-1.081,0.266-1.605,0.364c-2.541,0.518-5.097,0.716-7.694,0.568c-2.03-0.107-4.021-0.42-5.985-0.912
			c-0.259-0.064-0.37-0.162-0.428-0.401c-0.172-0.717-0.794-1.177-1.57-1.206c-0.734-0.03-1.43,0.445-1.635,1.087
			c-0.217,0.712,0.069,1.432,0.734,1.821c0.62,0.358,1.443,0.285,1.991-0.193c0.163-0.148,0.296-0.163,0.496-0.113
			c1.857,0.506,3.75,0.826,5.672,0.962c2.93,0.198,5.84,0.028,8.715-0.567c0.564-0.113,1.121-0.259,1.707-0.393
			C57.909,42.321,57.788,42.005,57.659,41.667z"/>
	</g>
</g>
</svg>
