<?xml version="1.0" encoding="UTF-8" standalone="no"?>
<!-- Generator: Adobe Illustrator 16.0.0, SVG Export Plug-In . SVG Version: 6.00 Build 0)  -->

<svg
   xmlns:dc="http://purl.org/dc/elements/1.1/"
   xmlns:cc="http://creativecommons.org/ns#"
   xmlns:rdf="http://www.w3.org/1999/02/22-rdf-syntax-ns#"
   xmlns:svg="http://www.w3.org/2000/svg"
   xmlns="http://www.w3.org/2000/svg"
   xmlns:sodipodi="http://sodipodi.sourceforge.net/DTD/sodipodi-0.dtd"
   xmlns:inkscape="http://www.inkscape.org/namespaces/inkscape"
   version="1.1"
   id="Camada_1"
   x="0px"
   y="0px"
   width="250"
   height="70"
   viewBox="0 0 250.00001 69.999999"
   enable-background="new 0 0 283.46 170.08"
   xml:space="preserve"
   inkscape:version="0.91 r13725"
   sodipodi:docname="logo.svg"><metadata
     id="metadata131"><rdf:RDF><cc:Work
         rdf:about=""><dc:format>image/svg+xml</dc:format><dc:type
           rdf:resource="http://purl.org/dc/dcmitype/StillImage" /><dc:title></dc:title></cc:Work></rdf:RDF></metadata><defs
     id="defs129" /><sodipodi:namedview
     pagecolor="#ffffff"
     bordercolor="#666666"
     borderopacity="1"
     objecttolerance="10"
     gridtolerance="10"
     guidetolerance="10"
     inkscape:pageopacity="0"
     inkscape:pageshadow="2"
     inkscape:window-width="640"
     inkscape:window-height="480"
     id="namedview127"
     showgrid="false" /><g
     id="g3"
     transform="matrix(1.6662603,0,0,1.6662603,-133.59289,-103.9163)"><g
       id="g5"><g
         id="g7"><path
           d="m 110.079,81.494 3.138,-6.684 0.693,0 3.113,6.688 -1.023,0 -0.654,-1.433 -2.868,0 0.424,-0.914 2.021,0 -1.37,-2.849 -2.427,5.19 -1.047,0 z"
           id="path9"
           inkscape:connector-curvature="0"
           style="fill:#ffffff" /><path
           d="m 119.544,74.789 4.125,0 c 0.86,0.063 1.319,0.543 1.378,1.436 l -0.004,0.713 c 0,0.486 -0.166,0.804 -0.502,0.959 0.336,0.109 0.502,0.398 0.502,0.869 l 0.004,1.295 c -0.059,0.899 -0.518,1.377 -1.378,1.438 l -4.125,0 0,-6.71 z m 3.813,2.624 c 0.517,0.017 0.772,-0.22 0.769,-0.706 l 0,-0.238 c 0,-0.482 -0.228,-0.723 -0.685,-0.723 l -2.98,0 0,4.794 2.98,0 c 0.457,-0.007 0.685,-0.241 0.685,-0.708 l 0,-0.83 c 0,-0.438 -0.272,-0.654 -0.816,-0.654 l -2.334,0 0,-0.935 2.381,0 z"
           id="path11"
           inkscape:connector-curvature="0"
           style="fill:#ffffff" /><path
           d="m 127.677,81.494 3.137,-6.684 0.694,0 3.11,6.688 -1.021,0 -0.654,-1.433 -2.867,0 0.423,-0.914 2.021,0 -1.371,-2.849 -2.426,5.19 -1.046,0 z"
           id="path13"
           inkscape:connector-curvature="0"
           style="fill:#ffffff" /><path
           d="m 138.058,80.54 4.125,0 0,0.959 -5.027,0 0,-6.707 0.903,0 0,5.748 z"
           id="path15"
           inkscape:connector-curvature="0"
           style="fill:#ffffff" /><path
           d="m 145.987,81.499 -0.907,0 0,-6.707 0.907,0 0,6.707 z"
           id="path17"
           inkscape:connector-curvature="0"
           style="fill:#ffffff" /><path
           d="m 149.252,81.499 0,-0.959 4.25,-4.794 -4.254,-0.006 0,-0.951 5.501,0 0,0.957 -4.198,4.794 4.198,0 0,0.959 -5.497,0 z"
           id="path19"
           inkscape:connector-curvature="0"
           style="fill:#ffffff" /><path
           d="m 157.377,81.494 3.137,-6.684 0.694,0 3.11,6.688 -1.021,0 -0.654,-1.433 -2.867,0 0.424,-0.914 2.021,0 -1.371,-2.849 -2.428,5.19 -1.045,0 z"
           id="path21"
           inkscape:connector-curvature="0"
           style="fill:#ffffff" /><path
           d="m 168.216,80.54 2.54,0 c 0.43,0.026 0.651,-0.222 0.668,-0.743 l 0,-3.357 c -0.006,-0.466 -0.221,-0.698 -0.643,-0.694 l -3.023,0 0,5.753 -0.908,0 0,-6.707 4.114,0 c 0.901,0.021 1.362,0.489 1.378,1.405 l -0.012,3.869 c -0.018,0.93 -0.473,1.408 -1.366,1.433 l -2.748,0 0,-0.959 z"
           id="path23"
           inkscape:connector-curvature="0"
           style="fill:#ffffff" /><path
           d="m 176.785,74.789 2.748,0 c 0.92,0 1.381,0.474 1.381,1.424 l 0,3.842 c -0.006,0.961 -0.465,1.444 -1.381,1.444 l -2.748,0 c -0.915,0 -1.373,-0.479 -1.373,-1.438 l 0,-3.836 c 0,-0.958 0.458,-1.436 1.373,-1.436 z m -0.457,1.643 0,3.47 c 0,0.425 0.201,0.639 0.605,0.639 l 2.459,0 c 0.398,0 0.602,-0.211 0.602,-0.63 l 0,-3.52 c 0,-0.431 -0.207,-0.645 -0.617,-0.645 l -2.434,0 c -0.41,0 -0.615,0.229 -0.615,0.686 z"
           id="path25"
           inkscape:connector-curvature="0"
           style="fill:#ffffff" /></g><g
         id="g27"><linearGradient
           id="SVGID_1_"
           gradientUnits="userSpaceOnUse"
           x1="107.6045"
           y1="86.641602"
           x2="183.9268"
           y2="86.641602"><stop
             offset="0"
             style="stop-color:#EF7B5A"
             id="stop30" /><stop
             offset="0.5"
             style="stop-color:#E30613"
             id="stop32" /><stop
             offset="1"
             style="stop-color:#CB181A"
             id="stop34" /></linearGradient><polygon
           points="109.145,87.451 181.727,87.447 181.736,87.447 181.736,87.443 183.927,85.832 172.897,85.848 172.891,85.854 107.604,85.832 "
           id="polygon36"
           style="fill:url(#SVGID_1_)" /><linearGradient
           id="SVGID_2_"
           gradientUnits="userSpaceOnUse"
           x1="105.6577"
           y1="84.860802"
           x2="199.0332"
           y2="84.860802"><stop
             offset="0"
             style="stop-color:#EDEEF4"
             id="stop39" /><stop
             offset="0.2472"
             style="stop-color:#94AFC7"
             id="stop41" /><stop
             offset="0.4326"
             style="stop-color:#BFCCDE"
             id="stop43" /><stop
             offset="0.6292"
             style="stop-color:#E1E9EE"
             id="stop45" /><stop
             offset="0.8371"
             style="stop-color:#A3ABBE"
             id="stop47" /><stop
             offset="1"
             style="stop-color:#5C7D99"
             id="stop49" /></linearGradient><polygon
           points="105.658,84.182 106.946,85.59 196.802,85.59 199.033,84.132 "
           id="polygon51"
           style="fill:url(#SVGID_2_)" /></g><g
         id="g53"><path
           d="m 109.838,89.07 c 0.206,-0.027 0.451,-0.049 0.72,-0.049 0.486,0 0.833,0.102 1.062,0.291 0.233,0.191 0.37,0.461 0.37,0.839 0,0.381 -0.132,0.692 -0.377,0.907 -0.245,0.219 -0.649,0.336 -1.159,0.336 -0.241,0 -0.444,-0.01 -0.615,-0.027 l 0,-2.297 z m 0.338,2.065 c 0.085,0.014 0.21,0.018 0.342,0.018 0.724,0 1.117,-0.36 1.117,-0.99 0.004,-0.551 -0.346,-0.9 -1.062,-0.9 -0.175,0 -0.308,0.014 -0.397,0.031 l 0,1.841 z"
           id="path55"
           inkscape:connector-curvature="0"
           style="fill:#ffffff" /><path
           d="m 114.021,90.279 -1.02,0 0,0.842 1.136,0 0,0.253 -1.475,0 0,-2.335 1.416,0 0,0.254 -1.078,0 0,0.737 1.02,0 0,0.249 z"
           id="path57"
           inkscape:connector-curvature="0"
           style="fill:#ffffff" /><path
           d="m 114.766,91.007 c 0.152,0.083 0.374,0.152 0.607,0.152 0.346,0 0.549,-0.163 0.549,-0.398 0,-0.218 -0.14,-0.343 -0.494,-0.464 -0.428,-0.135 -0.693,-0.332 -0.693,-0.662 0,-0.363 0.339,-0.633 0.848,-0.633 0.269,0 0.463,0.055 0.58,0.113 l -0.093,0.246 c -0.086,-0.041 -0.261,-0.11 -0.498,-0.11 -0.358,0 -0.494,0.19 -0.494,0.35 0,0.218 0.159,0.325 0.521,0.45 0.444,0.152 0.669,0.343 0.669,0.686 0,0.36 -0.3,0.672 -0.918,0.672 -0.253,0 -0.529,-0.065 -0.669,-0.148 l 0.085,-0.254 z"
           id="path59"
           inkscape:connector-curvature="0"
           style="fill:#ffffff" /><path
           d="m 118.323,90.279 -1.02,0 0,0.842 1.136,0 0,0.253 -1.475,0 0,-2.335 1.416,0 0,0.254 -1.078,0 0,0.737 1.02,0 0,0.249 z"
           id="path61"
           inkscape:connector-curvature="0"
           style="fill:#ffffff" /><path
           d="m 119.113,91.374 0,-2.335 0.37,0 0.84,1.182 c 0.194,0.273 0.346,0.52 0.471,0.758 l 0.008,-0.003 c -0.031,-0.312 -0.039,-0.596 -0.039,-0.96 l 0,-0.977 0.319,0 0,2.335 -0.342,0 -0.833,-1.185 c -0.183,-0.26 -0.358,-0.526 -0.49,-0.779 l -0.012,0.004 c 0.02,0.294 0.027,0.574 0.027,0.963 l 0,0.997 -0.319,0 z"
           id="path63"
           inkscape:connector-curvature="0"
           style="fill:#ffffff" /><path
           d="m 122.484,91.374 -0.856,-2.335 0.366,0 0.409,1.15 c 0.113,0.314 0.21,0.6 0.28,0.873 l 0.008,0 c 0.074,-0.271 0.183,-0.564 0.3,-0.869 l 0.443,-1.154 0.362,0 -0.938,2.335 -0.374,0 z"
           id="path65"
           inkscape:connector-curvature="0"
           style="fill:#ffffff" /><path
           d="m 126.555,90.183 c 0,0.804 -0.549,1.229 -1.218,1.229 -0.692,0 -1.179,-0.479 -1.179,-1.185 0,-0.741 0.518,-1.226 1.218,-1.226 0.715,10e-4 1.179,0.489 1.179,1.182 z m -2.035,0.038 c 0,0.498 0.304,0.945 0.836,0.945 0.537,0 0.84,-0.439 0.84,-0.97 0,-0.464 -0.272,-0.949 -0.836,-0.949 -0.56,0 -0.84,0.461 -0.84,0.974 z"
           id="path67"
           inkscape:connector-curvature="0"
           style="fill:#ffffff" /><path
           d="m 127.229,89.039 0.338,0 0,2.082 1.121,0 0,0.253 -1.459,0 0,-2.335 z"
           id="path69"
           inkscape:connector-curvature="0"
           style="fill:#ffffff" /><path
           d="m 129.646,91.374 -0.856,-2.335 0.366,0 0.409,1.15 c 0.113,0.314 0.21,0.6 0.28,0.873 l 0.008,0 c 0.074,-0.271 0.183,-0.564 0.3,-0.869 l 0.443,-1.154 0.362,0 -0.938,2.335 -0.374,0 z"
           id="path71"
           inkscape:connector-curvature="0"
           style="fill:#ffffff" /><path
           d="m 131.814,89.039 0,2.335 -0.338,0 0,-2.335 0.338,0 z"
           id="path73"
           inkscape:connector-curvature="0"
           style="fill:#ffffff" /><path
           d="m 134.85,90.349 c -0.02,-0.325 -0.043,-0.717 -0.039,-1.008 l -0.012,0 c -0.089,0.273 -0.198,0.564 -0.331,0.887 l -0.463,1.133 -0.257,0 -0.424,-1.112 c -0.125,-0.328 -0.229,-0.631 -0.303,-0.907 l -0.008,0 c -0.008,0.291 -0.027,0.683 -0.051,1.032 l -0.07,1.001 -0.323,0 0.183,-2.335 0.432,0 0.448,1.129 c 0.109,0.288 0.198,0.545 0.265,0.787 l 0.011,0 c 0.066,-0.236 0.16,-0.492 0.276,-0.787 l 0.467,-1.129 0.432,0 0.164,2.335 -0.331,0 -0.066,-1.026 z"
           id="path75"
           inkscape:connector-curvature="0"
           style="fill:#ffffff" /><path
           d="m 137.36,90.279 -1.02,0 0,0.842 1.136,0 0,0.253 -1.475,0 0,-2.335 1.416,0 0,0.254 -1.078,0 0,0.737 1.02,0 0,0.249 z"
           id="path77"
           inkscape:connector-curvature="0"
           style="fill:#ffffff" /><path
           d="m 138.151,91.374 0,-2.335 0.37,0 0.84,1.182 c 0.194,0.273 0.346,0.52 0.471,0.758 l 0.008,-0.003 c -0.031,-0.312 -0.039,-0.596 -0.039,-0.96 l 0,-0.977 0.319,0 0,2.335 -0.342,0 -0.833,-1.185 c -0.183,-0.26 -0.358,-0.526 -0.49,-0.779 l -0.012,0.004 c 0.02,0.294 0.027,0.574 0.027,0.963 l 0,0.997 -0.319,0 z"
           id="path79"
           inkscape:connector-curvature="0"
           style="fill:#ffffff" /><path
           d="m 141.444,89.296 -0.798,0 0,-0.257 1.941,0 0,0.257 -0.801,0 0,2.078 -0.342,0 0,-2.078 z"
           id="path81"
           inkscape:connector-curvature="0"
           style="fill:#ffffff" /><path
           d="m 145.25,90.183 c 0,0.804 -0.549,1.229 -1.219,1.229 -0.691,0 -1.178,-0.479 -1.178,-1.185 0,-0.741 0.518,-1.226 1.217,-1.226 0.717,10e-4 1.18,0.489 1.18,1.182 z m -2.035,0.038 c 0,0.498 0.304,0.945 0.836,0.945 0.537,0 0.841,-0.439 0.841,-0.97 0,-0.464 -0.272,-0.949 -0.837,-0.949 -0.56,0 -0.84,0.461 -0.84,0.974 z"
           id="path83"
           inkscape:connector-curvature="0"
           style="fill:#ffffff" /><path
           d="m 148.341,90.279 -1.02,0 0,0.842 1.136,0 0,0.253 -1.475,0 0,-2.335 1.416,0 0,0.254 -1.077,0 0,0.737 1.02,0 0,0.249 z"
           id="path85"
           inkscape:connector-curvature="0"
           style="fill:#ffffff" /><path
           d="m 151.549,90.279 -1.02,0 0,0.842 1.136,0 0,0.253 -1.475,0 0,-2.335 1.416,0 0,0.254 -1.077,0 0,0.737 1.02,0 0,0.249 z"
           id="path87"
           inkscape:connector-curvature="0"
           style="fill:#ffffff" /><path
           d="m 153.774,91.374 -0.335,-0.517 c -0.136,-0.197 -0.221,-0.325 -0.303,-0.46 l -0.008,0 c -0.074,0.135 -0.148,0.26 -0.284,0.464 l -0.315,0.513 -0.389,0 0.801,-1.181 -0.77,-1.154 0.393,0 0.346,0.548 c 0.098,0.152 0.172,0.271 0.242,0.395 l 0.012,0 c 0.073,-0.138 0.14,-0.245 0.236,-0.395 l 0.358,-0.548 0.39,0 -0.798,1.137 0.817,1.198 -0.393,0 z"
           id="path89"
           inkscape:connector-curvature="0"
           style="fill:#ffffff" /><path
           d="m 156.152,90.279 -1.02,0 0,0.842 1.137,0 0,0.253 -1.475,0 0,-2.335 1.416,0 0,0.254 -1.078,0 0,0.737 1.02,0 0,0.249 z"
           id="path91"
           inkscape:connector-curvature="0"
           style="fill:#ffffff" /><path
           d="m 158.776,91.298 c -0.124,0.056 -0.374,0.11 -0.692,0.11 -0.74,0 -1.296,-0.415 -1.296,-1.181 0,-0.731 0.556,-1.226 1.37,-1.226 0.326,0 0.533,0.062 0.622,0.104 l -0.081,0.246 c -0.129,-0.056 -0.313,-0.098 -0.529,-0.098 -0.615,0 -1.023,0.35 -1.023,0.963 0,0.572 0.369,0.939 1.008,0.939 0.205,0 0.416,-0.039 0.552,-0.098 l 0.069,0.241 z"
           id="path93"
           inkscape:connector-curvature="0"
           style="fill:#ffffff" /><path
           d="m 159.773,89.039 0,1.383 c 0,0.522 0.26,0.744 0.61,0.744 0.39,0 0.638,-0.229 0.638,-0.744 l 0,-1.383 0.343,0 0,1.361 c 0,0.717 -0.424,1.012 -0.992,1.012 -0.537,0 -0.941,-0.273 -0.941,-0.998 l 0,-1.375 0.342,0 z"
           id="path95"
           inkscape:connector-curvature="0"
           style="fill:#ffffff" /><path
           d="m 164.02,91.298 c -0.121,0.056 -0.358,0.107 -0.686,0.11 l -0.094,0.139 c 0.145,0.024 0.273,0.118 0.273,0.26 0,0.201 -0.199,0.281 -0.401,0.281 -0.101,0 -0.21,-0.024 -0.276,-0.059 l 0.055,-0.156 c 0.059,0.027 0.137,0.045 0.214,0.045 0.09,0 0.167,-0.031 0.167,-0.107 0,-0.09 -0.12,-0.129 -0.303,-0.146 l 0.163,-0.267 c -0.638,-0.066 -1.101,-0.468 -1.101,-1.171 0,-0.731 0.556,-1.226 1.369,-1.226 0.326,0 0.533,0.062 0.623,0.104 l -0.082,0.246 c -0.129,-0.056 -0.312,-0.098 -0.529,-0.098 -0.615,0 -1.023,0.35 -1.023,0.963 0,0.572 0.369,0.939 1.008,0.939 0.206,0 0.416,-0.039 0.553,-0.098 l 0.07,0.241 z"
           id="path97"
           inkscape:connector-curvature="0"
           style="fill:#ffffff" /><path
           d="m 165.137,90.64 -0.272,0.734 -0.351,0 0.892,-2.335 0.409,0 0.895,2.335 -0.362,0 -0.28,-0.734 -0.931,0 z m 0,-1.743 c -0.004,-0.212 0.098,-0.354 0.265,-0.354 0.089,0 0.151,0.031 0.233,0.069 0.063,0.031 0.125,0.063 0.188,0.063 0.058,0 0.093,-0.024 0.104,-0.135 l 0.179,0 c 0.004,0.218 -0.082,0.336 -0.26,0.336 -0.086,0 -0.156,-0.027 -0.238,-0.066 -0.074,-0.034 -0.129,-0.065 -0.187,-0.065 -0.059,0 -0.089,0.059 -0.101,0.152 l -0.183,0 z m 0.859,1.507 -0.256,-0.672 c -0.059,-0.152 -0.098,-0.291 -0.137,-0.426 l -0.008,0 c -0.039,0.139 -0.082,0.28 -0.132,0.422 l -0.257,0.676 0.79,0 z"
           id="path99"
           inkscape:connector-curvature="0"
           style="fill:#ffffff" /><path
           d="m 169.512,90.183 c 0,0.804 -0.549,1.229 -1.219,1.229 -0.692,0 -1.179,-0.479 -1.179,-1.185 0,-0.741 0.518,-1.226 1.218,-1.226 0.716,10e-4 1.18,0.489 1.18,1.182 z m -2.035,0.038 c 0,0.498 0.303,0.945 0.836,0.945 0.537,0 0.841,-0.439 0.841,-0.97 0,-0.464 -0.272,-0.949 -0.837,-0.949 -0.561,0 -0.84,0.461 -0.84,0.974 z"
           id="path101"
           inkscape:connector-curvature="0"
           style="fill:#ffffff" /><path
           d="m 171.244,89.07 c 0.206,-0.027 0.451,-0.049 0.72,-0.049 0.486,0 0.833,0.102 1.062,0.291 0.234,0.191 0.37,0.461 0.37,0.839 0,0.381 -0.132,0.692 -0.378,0.907 -0.244,0.219 -0.648,0.336 -1.158,0.336 -0.242,0 -0.444,-0.01 -0.615,-0.027 l 0,-2.297 z m 0.338,2.065 c 0.086,0.014 0.211,0.018 0.343,0.018 0.724,0 1.116,-0.36 1.116,-0.99 0.004,-0.551 -0.346,-0.9 -1.062,-0.9 -0.175,0 -0.308,0.014 -0.397,0.031 l 0,1.841 z"
           id="path103"
           inkscape:connector-curvature="0"
           style="fill:#ffffff" /><path
           d="m 175.428,90.279 -1.02,0 0,0.842 1.137,0 0,0.253 -1.475,0 0,-2.335 1.416,0 0,0.254 -1.078,0 0,0.737 1.02,0 0,0.249 z"
           id="path105"
           inkscape:connector-curvature="0"
           style="fill:#ffffff" /><path
           d="m 177.277,89.067 c 0.163,-0.024 0.377,-0.046 0.649,-0.046 0.335,0 0.58,0.07 0.735,0.195 0.145,0.11 0.23,0.279 0.23,0.488 0,0.211 -0.07,0.377 -0.203,0.498 -0.179,0.17 -0.471,0.256 -0.801,0.256 -0.102,0 -0.195,-0.003 -0.273,-0.02 l 0,0.935 -0.338,0 0,-2.306 z m 0.338,1.126 c 0.074,0.017 0.168,0.023 0.281,0.023 0.408,0 0.656,-0.176 0.656,-0.498 0,-0.309 -0.244,-0.457 -0.618,-0.457 -0.147,0 -0.261,0.01 -0.319,0.023 l 0,0.909 z"
           id="path107"
           inkscape:connector-curvature="0"
           style="fill:#ffffff" /><path
           d="m 179.582,89.07 c 0.17,-0.031 0.416,-0.049 0.648,-0.049 0.362,0 0.596,0.06 0.76,0.191 0.132,0.104 0.206,0.264 0.206,0.443 0,0.309 -0.218,0.512 -0.494,0.596 l 0,0.01 c 0.202,0.063 0.323,0.229 0.386,0.472 0.085,0.325 0.146,0.551 0.201,0.641 l -0.35,0 c -0.043,-0.065 -0.102,-0.267 -0.176,-0.558 -0.077,-0.322 -0.217,-0.443 -0.525,-0.453 l -0.318,0 0,1.011 -0.338,0 0,-2.304 z m 0.338,1.064 0.346,0 c 0.362,0 0.592,-0.177 0.592,-0.443 0,-0.302 -0.245,-0.433 -0.604,-0.437 -0.162,0 -0.279,0.014 -0.334,0.027 l 0,0.853 z"
           id="path109"
           inkscape:connector-curvature="0"
           style="fill:#ffffff" /><path
           d="m 184.162,90.183 c 0,0.804 -0.549,1.229 -1.219,1.229 -0.691,0 -1.178,-0.479 -1.178,-1.185 0,-0.741 0.518,-1.226 1.217,-1.226 0.717,10e-4 1.18,0.489 1.18,1.182 z m -2.035,0.038 c 0,0.498 0.304,0.945 0.836,0.945 0.537,0 0.841,-0.439 0.841,-0.97 0,-0.464 -0.272,-0.949 -0.837,-0.949 -0.56,0 -0.84,0.461 -0.84,0.974 z"
           id="path111"
           inkscape:connector-curvature="0"
           style="fill:#ffffff" /><path
           d="m 185.373,89.039 0.339,0 0,1.563 c 0,0.62 -0.343,0.811 -0.794,0.811 -0.125,0 -0.276,-0.024 -0.361,-0.055 l 0.05,-0.246 c 0.07,0.023 0.171,0.045 0.284,0.045 0.304,0 0.482,-0.121 0.482,-0.579 l 0,-1.539 z"
           id="path113"
           inkscape:connector-curvature="0"
           style="fill:#ffffff" /><path
           d="m 187.868,90.279 -1.02,0 0,0.842 1.136,0 0,0.253 -1.475,0 0,-2.335 1.416,0 0,0.254 -1.077,0 0,0.737 1.02,0 0,0.249 z"
           id="path115"
           inkscape:connector-curvature="0"
           style="fill:#ffffff" /><path
           d="m 189.219,89.296 -0.797,0 0,-0.257 1.941,0 0,0.257 -0.802,0 0,2.078 -0.343,0 0,-2.078 z"
           id="path117"
           inkscape:connector-curvature="0"
           style="fill:#ffffff" /><path
           d="m 193.025,90.183 c 0,0.804 -0.549,1.229 -1.219,1.229 -0.691,0 -1.178,-0.479 -1.178,-1.185 0,-0.741 0.518,-1.226 1.217,-1.226 0.718,10e-4 1.18,0.489 1.18,1.182 z m -2.035,0.038 c 0,0.498 0.304,0.945 0.836,0.945 0.537,0 0.841,-0.439 0.841,-0.97 0,-0.464 -0.272,-0.949 -0.837,-0.949 -0.559,0 -0.84,0.461 -0.84,0.974 z"
           id="path119"
           inkscape:connector-curvature="0"
           style="fill:#ffffff" /><path
           d="m 193.652,91.007 c 0.152,0.083 0.373,0.152 0.607,0.152 0.346,0 0.549,-0.163 0.549,-0.398 0,-0.218 -0.141,-0.343 -0.494,-0.464 -0.429,-0.135 -0.693,-0.332 -0.693,-0.662 0,-0.363 0.339,-0.633 0.848,-0.633 0.27,0 0.464,0.055 0.58,0.113 l -0.093,0.246 c -0.086,-0.041 -0.261,-0.11 -0.498,-0.11 -0.358,0 -0.494,0.19 -0.494,0.35 0,0.218 0.159,0.325 0.521,0.45 0.444,0.152 0.67,0.343 0.67,0.686 0,0.36 -0.3,0.672 -0.918,0.672 -0.254,0 -0.529,-0.065 -0.67,-0.148 l 0.085,-0.254 z"
           id="path121"
           inkscape:connector-curvature="0"
           style="fill:#ffffff" /></g></g><g
       id="g123"><path
         d="m 107.604,85.832 c 0.439,0.475 1.101,1.145 1.54,1.619 -0.811,0.618 -2.059,1.229 -2.961,1.688 -0.899,0.458 -1.824,0.871 -2.76,1.316 0.321,0.824 0.659,1.693 1.003,2.572 0.136,-0.044 0.254,-0.081 0.403,-0.127 0.112,0.284 0.224,0.567 0.341,0.863 -0.141,0.051 -0.264,0.097 -0.394,0.145 0.031,0.087 0.057,0.162 0.089,0.252 0.135,-0.041 0.259,-0.078 0.408,-0.123 0.225,0.572 0.446,1.141 0.675,1.727 -0.132,0.051 -0.252,0.096 -0.398,0.15 0.038,0.096 0.073,0.186 0.111,0.285 0.138,-0.043 0.263,-0.08 0.427,-0.131 1.075,2.99 2.145,5.968 3.221,8.963 -0.052,0.023 -0.1,0.046 -0.161,0.072 -0.717,-1.588 -1.429,-3.163 -2.146,-4.75 -0.189,0.061 -0.365,0.117 -0.557,0.18 -0.93,-1.204 -1.86,-2.408 -2.803,-3.629 0.13,-0.049 0.25,-0.096 0.387,-0.145 -0.031,-0.095 -0.059,-0.182 -0.095,-0.287 -0.141,0.039 -0.271,0.076 -0.417,0.115 -0.226,-0.581 -0.448,-1.149 -0.674,-1.727 0.138,-0.051 0.261,-0.098 0.402,-0.15 -0.036,-0.086 -0.067,-0.163 -0.102,-0.246 -0.133,0.041 -0.253,0.077 -0.402,0.125 -0.111,-0.284 -0.22,-0.563 -0.338,-0.859 0.133,-0.051 0.259,-0.1 0.398,-0.154 -0.343,-0.882 -0.683,-1.758 -1.032,-2.653 -3.76,0.991 -7.519,0.983 -11.29,-0.04 -0.319,0.818 -0.637,1.635 -0.958,2.459 0.143,0.054 0.263,0.1 0.399,0.15 -0.114,0.293 -0.223,0.572 -0.335,0.863 -0.139,-0.046 -0.256,-0.085 -0.398,-0.131 -0.034,0.082 -0.068,0.159 -0.105,0.247 0.136,0.054 0.257,0.103 0.397,0.157 -0.225,0.578 -0.448,1.146 -0.674,1.729 -0.14,-0.043 -0.264,-0.083 -0.403,-0.126 -0.039,0.096 -0.073,0.183 -0.116,0.286 0.127,0.047 0.248,0.093 0.392,0.147 -0.108,0.214 -0.21,0.422 -0.317,0.628 -0.694,1.33 -1.391,2.658 -2.086,3.987 -0.123,0.237 -0.248,0.474 -0.368,0.712 -0.065,0.129 -0.136,0.236 -0.329,0.117 -0.49,1.006 -0.972,1.996 -1.456,2.989 -0.176,0.022 -0.169,-0.065 -0.135,-0.18 0.284,-0.952 0.567,-1.907 0.849,-2.86 0.017,-0.055 0.029,-0.109 0.045,-0.168 -0.071,-0.034 -0.135,-0.063 -0.213,-0.098 0.528,-1.979 1.054,-3.953 1.587,-5.951 0.136,0.042 0.26,0.08 0.397,0.121 0.039,-0.091 0.075,-0.176 0.12,-0.281 -0.133,-0.052 -0.258,-0.1 -0.398,-0.152 0.226,-0.58 0.448,-1.148 0.673,-1.728 0.145,0.044 0.272,0.079 0.408,0.12 0.032,-0.084 0.062,-0.158 0.097,-0.248 -0.129,-0.047 -0.251,-0.092 -0.399,-0.146 0.11,-0.283 0.22,-0.562 0.336,-0.86 0.136,0.04 0.261,0.078 0.403,0.12 0.062,-0.149 0.124,-0.292 0.179,-0.437 0.248,-0.637 0.489,-1.275 0.744,-1.91 0.05,-0.124 0.036,-0.201 -0.067,-0.291 -0.293,-0.258 -0.514,-0.565 -0.629,-0.925 -0.413,-1.271 0.366,-2.521 1.685,-2.825 0.073,-0.018 0.162,-0.087 0.19,-0.152 0.217,-0.525 0.422,-1.056 0.637,-1.606 -0.084,-0.032 -0.167,-0.063 -0.266,-0.103 -0.112,0.283 -0.221,0.556 -0.338,0.848 -0.183,-0.063 -0.35,-0.117 -0.533,-0.181 0.293,-0.757 0.583,-1.501 0.88,-2.266 0.182,0.06 0.35,0.115 0.536,0.177 -0.109,0.283 -0.215,0.558 -0.326,0.848 0.084,0.032 0.162,0.061 0.268,0.102 0.905,-2.327 1.808,-4.644 2.713,-6.969 -0.552,-0.387 -0.98,-0.859 -1.299,-1.426 -1.34,-2.389 0.304,-5.418 3.153,-5.8 0.127,-0.017 0.18,-0.054 0.167,-0.176 -0.011,-0.098 -0.002,-0.198 -0.002,-0.315 -0.233,0 -0.445,0 -0.667,0 0,-1.764 0,-3.508 0,-5.266 0.839,0 1.675,0 2.53,0 0,1.748 0,3.496 0,5.26 -0.208,0 -0.415,0 -0.635,0 0,0.168 0,0.32 0,0.461 0.342,0.108 0.694,0.19 1.02,0.329 1.393,0.587 2.244,1.597 2.505,2.999 0.237,1.273 -0.131,2.414 -1.054,3.383 -0.152,0.159 -0.329,0.299 -0.511,0.424 -0.119,0.082 -0.122,0.154 -0.075,0.269 0.433,1.085 0.863,2.17 1.288,3.258 0.472,1.206 0.939,2.415 1.409,3.621 0.021,0.054 0.045,0.104 0.077,0.176 0.085,-0.027 0.164,-0.052 0.265,-0.084 -0.108,-0.288 -0.211,-0.563 -0.323,-0.854 0.181,-0.062 0.347,-0.12 0.53,-0.183 0.295,0.757 0.586,1.502 0.885,2.27 -0.184,0.063 -0.351,0.119 -0.534,0.184 -0.112,-0.281 -0.219,-0.551 -0.333,-0.838 -0.087,0.023 -0.168,0.047 -0.273,0.075 0.164,0.423 0.323,0.833 0.488,1.257 1.262,-0.499 2.408,-1.152 3.481,-1.939 0.438,0.473 0.863,0.932 1.304,1.408 -1.357,1.027 -2.849,1.828 -4.481,2.441 0.078,0.199 0.153,0.39 0.238,0.607 1.715,-0.622 3.455,-1.73 4.886,-2.805 z M 95.583,70.441 c -1.45,0.109 -3.057,1.354 -3.17,3.168 -0.122,1.953 1.443,3.589 3.489,3.687 2.06,0.101 3.794,-1.366 3.891,-3.312 0.098,-1.943 -1.513,-3.33 -3,-3.52 0,0.29 0,0.576 0,0.869 -0.411,0 -0.803,0 -1.211,0 0.001,-0.305 0.001,-0.599 0.001,-0.892 z M 99.75,86.877 C 99.527,86.3 99.312,85.74 99.096,85.182 98.574,83.84 98.051,82.498 97.529,81.158 97.121,80.109 96.715,79.061 96.307,78.012 96.274,77.928 96.245,77.86 96.116,77.86 c -0.127,0 -0.157,0.063 -0.19,0.15 -0.067,0.184 -0.14,0.365 -0.211,0.548 -0.881,2.267 -1.764,4.533 -2.644,6.801 -0.191,0.487 -0.38,0.975 -0.579,1.485 2.426,0.556 4.831,0.563 7.258,0.033 z m 1.09,1.664 c -0.34,0.08 -0.655,0.16 -0.973,0.225 -1.538,0.314 -3.088,0.435 -4.66,0.347 -1.23,-0.067 -2.437,-0.259 -3.626,-0.553 -0.157,-0.039 -0.224,-0.103 -0.259,-0.251 -0.104,-0.435 -0.481,-0.713 -0.951,-0.727 -0.445,-0.014 -0.868,0.271 -0.991,0.662 -0.133,0.43 0.042,0.863 0.443,1.096 0.375,0.222 0.875,0.179 1.207,-0.117 0.098,-0.088 0.179,-0.095 0.3,-0.063 1.125,0.301 2.272,0.495 3.438,0.576 1.775,0.125 3.537,0.022 5.279,-0.337 0.343,-0.071 0.681,-0.157 1.034,-0.238 -0.087,-0.223 -0.163,-0.417 -0.241,-0.62 z"
         id="path125"
         inkscape:connector-curvature="0"
         style="clip-rule:evenodd;fill:#e30613;fill-rule:evenodd" /></g></g></svg>